<svg width="924" height="238" viewBox="0 0 924 238" fill="none" xmlns="http://www.w3.org/2000/svg">
<path d="M469.073 223.008L420.263 141.792H397.204V223.008H361.079V1.44019H435.829C483.678 1.44019 508.369 24.4801 508.369 70.9441V72.2881C508.369 110.304 491.751 132.384 459.948 139.488V142.368L509.045 222.912H469.073V223.008ZM473.014 71.0401C473.014 44.4481 465.232 34.9441 435.927 34.9441H397.204V108.672H435.927C465.232 108.672 473.014 98.592 473.014 72.2881V70.9441V71.0401Z" fill="white"/>
<path d="M587.637 226.272C547.283 226.272 519.999 201.6 519.999 152.16V131.328C519.999 81.9845 546.995 56.9285 587.637 56.9285H589.561C629.916 56.9285 657.203 81.9845 657.203 131.328V152.16C657.203 201.504 629.916 226.272 589.561 226.272H587.637ZM589.561 194.4C612.333 194.4 622.036 183.648 622.036 152.16V131.328C622.036 99.4561 612.333 89.0885 589.561 89.0885H587.637C564.578 89.0885 555.162 99.4561 555.162 131.328V152.16C555.162 183.648 564.578 194.4 587.637 194.4H589.561Z" fill="white"/>
<path d="M740.413 226.272C700.058 226.272 672.77 201.6 672.77 152.16V131.328C672.77 81.9845 699.77 56.9285 740.413 56.9285H742.331C782.686 56.9285 809.974 81.9845 809.974 131.328V152.16C809.974 201.504 782.686 226.272 742.331 226.272H740.413ZM742.331 194.4C765.103 194.4 774.806 183.648 774.806 152.16V131.328C774.806 99.4561 765.103 89.0885 742.331 89.0885H740.413C717.353 89.0885 707.933 99.4561 707.933 131.328V152.16C707.933 183.648 717.353 194.4 740.413 194.4H742.331Z" fill="white"/>
<path d="M923.734 191.136V223.008H890.203C860.898 223.008 844.085 203.808 844.085 176.928V92.4484H814.491V60.2883H844.085V23.6163L879.825 20.7363V60.3843H922.777V92.5443H879.825V180.864C879.825 188.64 881.748 191.232 890.203 191.232H923.734V191.136Z" fill="white"/>
<path d="M31.4193 0L125.771 55.2L220.507 0L251.541 18.4321L125.771 90.72L0.769531 18.4321L31.4193 0Z" fill="#40845F"/>
<path d="M125.771 90.7196V237.216L157.382 218.976V108L251.541 55.2956V18.4316L125.771 90.7196Z" fill="#00F97C"/>
<path d="M125.771 90.7196V237.216L94.1587 218.976V108L0 55.2956V18.4316L125.771 90.7196Z" fill="#05301C"/>
</svg>
