<svg width="924" height="243" viewBox="0 0 924 243" fill="none" xmlns="http://www.w3.org/2000/svg">
<path d="M469.073 228.008L420.263 146.792H397.204V228.008H361.079V6.44043H435.829C483.678 6.44043 508.369 29.4804 508.369 75.9444V77.2884C508.369 115.304 491.751 137.384 459.948 144.488V147.368L509.045 227.912H469.073V228.008ZM473.014 76.0404C473.014 49.4484 465.232 39.9444 435.927 39.9444H397.204V113.672H435.927C465.232 113.672 473.014 103.592 473.014 77.2884V75.9444V76.0404Z" fill="white"/>
<path d="M587.637 231.272C547.283 231.272 519.999 206.6 519.999 157.16V136.328C519.999 86.9847 546.995 61.9287 587.637 61.9287H589.561C629.916 61.9287 657.203 86.9847 657.203 136.328V157.16C657.203 206.504 629.916 231.272 589.561 231.272H587.637ZM589.561 199.4C612.333 199.4 622.036 188.648 622.036 157.16V136.328C622.036 104.456 612.333 94.0887 589.561 94.0887H587.637C564.578 94.0887 555.162 104.456 555.162 136.328V157.16C555.162 188.648 564.578 199.4 587.637 199.4H589.561Z" fill="white"/>
<path d="M740.413 231.272C700.058 231.272 672.77 206.6 672.77 157.16V136.328C672.77 86.9847 699.77 61.9287 740.413 61.9287H742.331C782.686 61.9287 809.974 86.9847 809.974 136.328V157.16C809.974 206.504 782.686 231.272 742.331 231.272H740.413ZM742.331 199.4C765.103 199.4 774.806 188.648 774.806 157.16V136.328C774.806 104.456 765.103 94.0887 742.331 94.0887H740.413C717.353 94.0887 707.933 104.456 707.933 136.328V157.16C707.933 188.648 717.353 199.4 740.413 199.4H742.331Z" fill="white"/>
<path d="M923.734 196.136V228.008H890.203C860.898 228.008 844.085 208.808 844.085 181.928V97.4484H814.491V65.2883H844.085V28.6163L879.825 25.7363V65.3843H922.777V97.5443H879.825V185.864C879.825 193.64 881.748 196.232 890.203 196.232H923.734V196.136Z" fill="white"/>
<path d="M33.4193 0L127.771 55.2L222.507 0L253.541 18.4321L127.771 90.72L2.76953 18.4321L33.4193 0Z" fill="white"/>
<path d="M130.771 95.7196V242.216L162.382 223.976V113L256.541 60.2956V23.4316L130.771 95.7196Z" fill="white"/>
<path d="M125.771 95.7196V242.216L94.1587 223.976V113L0 60.2956V23.4316L125.771 95.7196Z" fill="white"/>
</svg>
