<svg width="924" height="243" viewBox="0 0 924 243" fill="none" xmlns="http://www.w3.org/2000/svg">
<path d="M469.073 222.008L420.263 140.792H397.204V222.008H361.079V0.44043H435.829C483.678 0.44043 508.369 23.4804 508.369 69.9444V71.2884C508.369 109.304 491.751 131.384 459.948 138.488V141.368L509.045 221.912H469.073V222.008ZM473.014 70.0404C473.014 43.4484 465.232 33.9444 435.927 33.9444H397.204V107.672H435.927C465.232 107.672 473.014 97.5923 473.014 71.2884V69.9444V70.0404Z" fill="black"/>
<path d="M33.4193 0L127.771 55.2L222.507 0L253.541 18.4321L127.771 90.72L2.76953 18.4321L33.4193 0Z" fill="black"/>
<path d="M130.771 95.7196V242.216L162.382 223.976V113L256.541 60.2956V23.4316L130.771 95.7196Z" fill="black"/>
<path d="M125.771 95.7196V242.216L94.1587 223.976V113L0 60.2956V23.4316L125.771 95.7196Z" fill="black"/>
<path d="M587.637 225.272C547.283 225.272 519.999 200.6 519.999 151.16V130.328C519.999 80.9847 546.995 55.9287 587.637 55.9287H589.561C629.916 55.9287 657.203 80.9847 657.203 130.328V151.16C657.203 200.504 629.916 225.272 589.561 225.272H587.637ZM589.561 193.4C612.333 193.4 622.036 182.648 622.036 151.16V130.328C622.036 98.4563 612.333 88.0887 589.561 88.0887H587.637C564.578 88.0887 555.162 98.4563 555.162 130.328V151.16C555.162 182.648 564.578 193.4 587.637 193.4H589.561Z" fill="black"/>
<path d="M740.413 225.272C700.058 225.272 672.77 200.6 672.77 151.16V130.328C672.77 80.9847 699.77 55.9287 740.413 55.9287H742.331C782.686 55.9287 809.974 80.9847 809.974 130.328V151.16C809.974 200.504 782.686 225.272 742.331 225.272H740.413ZM742.331 193.4C765.103 193.4 774.806 182.648 774.806 151.16V130.328C774.806 98.4563 765.103 88.0887 742.331 88.0887H740.413C717.353 88.0887 707.933 98.4563 707.933 130.328V151.16C707.933 182.648 717.353 193.4 740.413 193.4H742.331Z" fill="black"/>
<path d="M923.734 190.136V222.008H890.203C860.898 222.008 844.085 202.808 844.085 175.928V91.4484H814.491V59.2883H844.085V22.6163L879.825 19.7363V59.3843H922.777V91.5443H879.825V179.864C879.825 187.64 881.748 190.232 890.203 190.232H923.734V190.136Z" fill="black"/>
</svg>
