<svg width="100" height="100" viewBox="0 0 100 100" fill="none" xmlns="http://www.w3.org/2000/svg">
<g clip-path="url(#clip0_1_2)">
<path d="M50 92C73.196 92 92 73.196 92 50C92 26.804 73.196 8 50 8C26.804 8 8 26.804 8 50C8 73.196 26.804 92 50 92Z" fill="black"/>
<path d="M50 92C73.196 92 92 73.196 92 50C92 26.804 73.196 8 50 8C26.804 8 8 26.804 8 50C8 73.196 26.804 92 50 92Z" fill="#72F589" fill-opacity="0.3"/>
<path d="M29.399 29.1254L50.231 41.3131L71.1477 29.1254L77.9999 33.1951L50.231 49.1556L22.6318 33.1951L29.399 29.1254Z" fill="#40845F"/>
<path d="M50.2305 49.1557V81.5008L57.2099 77.4735V52.9711L77.9993 41.3344V33.1952L50.2305 49.1557Z" fill="#00F97C"/>
<path d="M50.231 49.1557V81.5008L43.2513 77.4735V52.9711L22.4619 41.3344V33.1952L50.231 49.1557Z" fill="#05301C"/>
</g>
<defs>
<clipPath id="clip0_1_2">
<rect width="100" height="100" fill="white"/>
</clipPath>
</defs>
</svg>
